<svg width="50" height="32" viewBox="0 0 50 32" fill="none" xmlns="http://www.w3.org/2000/svg"><path d="M.059 3.293a2.643 2.643 0 01.78-1.87 2.672 2.672 0 011.88-.776h44.562a2.668 2.668 0 011.882.774 2.644 2.644 0 01.778 1.872v25.884a2.643 2.643 0 01-.78 1.87 2.672 2.672 0 01-1.88.776H2.719a2.667 2.667 0 01-1.882-.773 2.642 2.642 0 01-.778-1.873V3.293zm34.884 6.794a9.24 9.24 0 00-3.18-.546c-3.508 0-5.978 1.757-5.998 4.275-.021 1.861 1.762 2.895 3.109 3.52 1.347.623 1.846 1.041 1.841 1.608 0 .868-1.105 1.24-2.124 1.24a7.479 7.479 0 01-3.325-.678l-.457-.207-.5 2.895c1.266.465 2.605.7 3.954.694 3.741 0 6.152-1.737 6.181-4.428 0-1.472-.931-2.593-2.98-3.519-1.247-.595-2-.997-1.991-1.604 0-.538.644-1.113 2.032-1.113a6.503 6.503 0 012.64.521l.316.15.482-2.808zm9.1-.306h-2.74c-.831 0-1.488.231-1.858 1.075l-5.271 11.867h3.741s.611-1.596.748-1.948h4.544c.108.45.416 1.94.416 1.94h3.292L44.042 9.773v.008zm-4.374 8.348l1.414-3.622c0 .033.29-.748.47-1.24l.24 1.116.832 3.742-2.956.004zm-21.146 4.59h3.567l2.203-12.95h-3.55l-2.22 12.95zm-6.825-5.905l-1.247-5.95c-.216-.827-.832-1.067-1.609-1.096H3.126l-.041.27c1.306.303 2.564.781 3.741 1.421l3.155 11.247h3.741l5.587-12.93h-3.762l-3.47 8.833-.38-1.795z" fill="#34425E"/></svg>