<svg width="50" height="32" viewBox="0 0 50 32" fill="none" xmlns="http://www.w3.org/2000/svg"><path fill-rule="evenodd" clip-rule="evenodd" d="M.059 3.47a2.643 2.643 0 01.78-1.87 2.672 2.672 0 011.88-.777h44.562a2.668 2.668 0 011.882.774 2.644 2.644 0 01.778 1.873v25.884a2.643 2.643 0 01-.78 1.87 2.672 2.672 0 01-1.88.776H2.719a2.67 2.67 0 01-1.882-.774 2.641 2.641 0 01-.778-1.872V3.47zm46.823 12.934a13.45 13.45 0 01-2.062 7.135 13.552 13.552 0 01-5.542 4.973A13.64 13.64 0 0125 27.067a13.62 13.62 0 01-14.267 1.442A13.53 13.53 0 015.2 23.535a13.43 13.43 0 010-14.263 13.53 13.53 0 015.533-4.974A13.619 13.619 0 0125 5.74a13.64 13.64 0 0114.279-1.445 13.551 13.551 0 015.54 4.973 13.45 13.45 0 012.063 7.136zM33.313 4.13a12.377 12.377 0 00-7.349 2.407 13.5 13.5 0 013.9 6.479h-1.248A12.264 12.264 0 0025 7.303a12.263 12.263 0 00-3.588 5.71h-1.247a13.475 13.475 0 013.904-6.48 12.398 12.398 0 00-12.896-1.095 12.317 12.317 0 00-4.955 4.526 12.228 12.228 0 000 12.875 12.318 12.318 0 004.954 4.525A12.4 12.4 0 0024.07 26.27a13.52 13.52 0 01-3.779-6.037h1.276A12.237 12.237 0 0025 25.5a12.283 12.283 0 003.45-5.268h1.272a13.548 13.548 0 01-3.774 6.037 12.413 12.413 0 0011.091 1.862 12.363 12.363 0 004.955-2.968 12.276 12.276 0 003.054-4.887A12.22 12.22 0 0043.33 9.219a12.333 12.333 0 00-4.393-3.744 12.404 12.404 0 00-5.625-1.344zm-21.615 9.345H9.715l-1.247 3.663-.054-3.663h-1.82l-.998 5.917h1.197l.748-4.511.108 4.52h.869l1.63-4.55-.728 4.55h1.272l1.006-5.926zm2.37 3.771a2.612 2.612 0 00-.283 0c-.724 0-1.09.244-1.09.728a.44.44 0 00.454.492c.523-.017.893-.509.918-1.22zm.926 2.146h-1.056l.025-.5a1.599 1.599 0 01-1.338.583 1.195 1.195 0 01-.873-.4 1.181 1.181 0 01-.291-.911c0-1.174.831-1.857 2.236-1.857.176.002.35.014.524.038.029-.103.044-.208.046-.315 0-.318-.22-.438-.832-.438a4.178 4.178 0 00-1.35.22c0-.084.178-1.084.178-1.084a5.055 5.055 0 011.542-.26c1.094 0 1.663.487 1.663 1.41a6.03 6.03 0 01-.1.955c-.112.698-.349 2.19-.382 2.555l.008.004zm16.657-6.062c-1.688 0-2.873 1.476-2.873 3.593 0 1.572.857 2.552 2.228 2.552a3.964 3.964 0 001.127-.174l.224-1.348a2.504 2.504 0 01-1.084.306c-.74 0-1.19-.546-1.19-1.443 0-1.303.67-2.216 1.622-2.216.4.011.791.12 1.139.318l.208-1.282a4.517 4.517 0 00-1.401-.306zm3.674 3.916a2.638 2.638 0 00-.286 0c-.72 0-1.085.244-1.085.728a.439.439 0 00.27.458.446.446 0 00.187.034c.52-.017.894-.509.914-1.22zm.927 2.146h-1.055l.024-.5a1.599 1.599 0 01-1.338.583 1.195 1.195 0 01-.873-.4 1.18 1.18 0 01-.29-.911c0-1.174.83-1.857 2.24-1.857.173.002.347.015.52.038.028-.103.043-.208.045-.315 0-.318-.22-.438-.831-.438a4.178 4.178 0 00-1.351.22c0-.084.178-1.084.178-1.084a5.099 5.099 0 011.542-.26c1.094 0 1.663.487 1.663 1.41a6.69 6.69 0 01-.087.959c-.112.698-.35 2.191-.382 2.555h-.005zM21.26 18.256a1.1 1.1 0 01-.345.045c-.304 0-.416-.107-.416-.36 0-.152.212-1.29.357-2.203h.657l.175-1.158h-.67l.146-.724h-1.268s-.478 2.833-.549 3.28a11.07 11.07 0 00-.178 1.281.926.926 0 00.596 1.003.94.94 0 00.414.056 3.02 3.02 0 00.914-.157l.167-1.063zm3.899 1.025c-.422.13-.86.196-1.301.195-1.422 0-2.162-.74-2.162-2.146 0-1.654.944-2.857 2.22-2.857a1.625 1.625 0 011.259.481 1.607 1.607 0 01.454 1.263 5.263 5.263 0 01-.154 1.183h-2.52c-.087.695.362.988 1.102.988a3.039 3.039 0 001.314-.302l-.212 1.195zm-.715-2.853c0-.099.137-.86-.586-.86-.416 0-.695.306-.811.86h1.397zm-8.468-.306a1.393 1.393 0 00.969 1.344c.515.244.598.314.598.534 0 .297-.228.413-.735.413a3.59 3.59 0 01-1.143-.186l-.175 1.112c.437.097.883.144 1.33.14 1.343 0 1.966-.508 1.966-1.608a1.314 1.314 0 00-.902-1.335c-.532-.244-.594-.298-.594-.521 0-.224.212-.393.627-.393.306.004.612.027.915.07l.179-1.116a9.128 9.128 0 00-1.123-.095c-1.425 0-1.92.74-1.912 1.629v.012zm27.46 3.308H42.23l.058-.446a1.513 1.513 0 01-1.176.529c-.927 0-1.538-.794-1.538-1.993 0-1.604.948-2.952 2.078-2.952a1.441 1.441 0 011.222.62l.283-1.712h1.247l-.969 5.954zm-1.883-1.112c.595 0 1.015-.67 1.015-1.621 0-.612-.237-.943-.678-.943-.578 0-.99.67-.99 1.613 0 .595.221.914.653.914v.037zm-3.932-3.7c-.162 1.488-.445 2.997-.665 4.49l-.058.322h1.272c.457-2.944.57-3.519 1.284-3.444.085-.49.25-.961.486-1.398-.536-.107-.83.195-1.222.761.044-.242.068-.486.071-.732H37.62zm-11.144 0c-.163 1.488-.445 2.997-.67 4.49l-.058.322h1.276c.47-2.981.566-3.556 1.301-3.481.09-.488.253-.96.487-1.398-.533-.107-.832.194-1.223.76.046-.24.071-.485.075-.731l-1.189.037z" fill="#34425E"/></svg>