<svg width="50" height="33" viewBox="0 0 50 33" fill="none" xmlns="http://www.w3.org/2000/svg"><path d="M46.458.823A3.526 3.526 0 0150 4.346v24.955a3.526 3.526 0 01-3.542 3.523H3.542A3.526 3.526 0 010 29.3V4.346A3.526 3.526 0 013.542.823h42.916zM7.875 17.29c1.208 0 2.125-.34 2.833-1.018.667-.68 1.042-1.655 1.042-2.844 0-.849-.25-1.443-.792-1.825-.541-.382-1.25-.551-2.083-.551H5.542c-.25 0-.417.127-.417.382L3.667 20.09c0 .085 0 .17.041.255a.229.229 0 00.209.127H5.5c.292 0 .417-.127.458-.424l.375-2.334c0-.128.084-.212.167-.297a.375.375 0 01.292-.128c.125 0 .25-.042.375-.042h.416c.125 0 .25.042.292.042zm8.25-1.23c.25.254.375.551.375.976 0 .509-.167.976-.542 1.315-.375.34-.791.51-1.291.51a1.39 1.39 0 01-.959-.34c-.25-.212-.375-.552-.375-.934 0-.509.167-.976.542-1.315.333-.382.792-.552 1.292-.552.375 0 .708.085.958.34zM19 14.49c0-.086 0-.17-.042-.213a.229.229 0 00-.208-.127h-1.583c-.209 0-.334.254-.375.721-.375-.552-1.042-.849-2-.849-1 0-1.834.382-2.542 1.146-.708.764-1.042 1.655-1.042 2.716 0 .85.25 1.486.709 1.995.5.51 1.125.764 1.916.764a3.25 3.25 0 001.209-.255c.416-.17.75-.382 1-.679-.042.17-.084.297-.084.425 0 .212.084.34.292.34h1.458c.25 0 .417-.128.459-.425l.833-5.56zm2.708 8.105a.436.436 0 00.375-.212l5.334-7.809c.041-.042.041-.085.041-.127 0-.085-.041-.127-.083-.212a.316.316 0 00-.208-.085h-1.625a.436.436 0 00-.375.212l-2.209 3.31-.875-3.183c-.083-.212-.208-.34-.458-.34h-1.583c-.084 0-.125.043-.167.086a.327.327 0 00-.083.212c0 .042.125.467.416 1.273.25.806.542 1.698.875 2.631.334.934.459 1.443.5 1.486-1.125 1.57-1.708 2.419-1.708 2.546 0 .17.083.297.292.297l1.541-.085zm9.834-5.305c1.208 0 2.125-.34 2.833-1.018.667-.68 1.042-1.655 1.042-2.844 0-.849-.25-1.443-.792-1.825-.542-.382-1.25-.551-2.083-.551h-3.334c-.291 0-.416.127-.458.382l-1.375 8.657c0 .085 0 .17.042.255a.229.229 0 00.208.127h1.708c.167 0 .292-.084.334-.254l.375-2.462c0-.127.041-.212.166-.297a.375.375 0 01.292-.127c.125 0 .25-.043.375-.043h.375c.125-.042.25 0 .292 0zm8.25-1.23c.25.254.375.551.375.976 0 .509-.167.933-.542 1.273-.375.34-.792.552-1.292.552-.416 0-.708-.128-1-.34-.25-.212-.375-.552-.375-.934 0-.509.167-.976.542-1.315.333-.382.792-.552 1.292-.552.416 0 .75.085 1 .34zm2.875-1.57c0-.086 0-.17-.084-.213a.229.229 0 00-.208-.127h-1.583c-.209 0-.292.254-.334.721-.375-.552-1-.849-2-.849s-1.833.382-2.541 1.146c-.709.764-1.042 1.655-1.042 2.716 0 .85.25 1.486.708 1.995.5.51 1.125.764 1.917.764a3.09 3.09 0 001.208-.255c.417-.17.75-.382 1-.679 0 0 0 .085-.041.17-.042.127-.042.212-.042.255 0 .212.083.34.292.34h1.458c.25 0 .417-.128.458-.425l.834-5.56zm3.666-3.184c0-.212-.083-.297-.291-.297H44.5c-.167 0-.25.085-.292.255l-1.291 8.827-.042.043c0 .085.042.127.083.212a.315.315 0 00.209.085h1.375c.25 0 .416-.127.458-.425l1.333-8.7zm-13.708 1.91c.167.17.25.382.25.637 0 .594-.167 1.018-.458 1.23-.292.213-.75.297-1.375.297h-.667l.375-2.291c.042-.17.125-.213.25-.213h.375c.292 0 .542 0 .75.043.167.042.333.127.5.297zm-23.708-.085c.25.17.333.51.25 1.019-.084.509-.25.806-.542.976-.292.17-.708.212-1.25.212h-.708l.375-2.292c.041-.17.125-.212.25-.212h.416c.542.085.959.127 1.209.297z" fill="#34425E"/></svg>