<?xml version="1.0" encoding="utf-8"?><svg xmlns="http://www.w3.org/2000/svg" xmlns:xlink="http://www.w3.org/1999/xlink"><symbol viewBox="0 0 20 10" id="arrow-down" xmlns="http://www.w3.org/2000/svg"><path d="M1 .5l9 9 9-9"/></symbol><symbol viewBox="0 0 18 50" id="arrow-right" xmlns="http://www.w3.org/2000/svg"><path d="M1 49l16-23.442L1 1"/></symbol><symbol viewBox="0 0 16 16" id="close" xmlns="http://www.w3.org/2000/svg"><rect x="1.042" width="21.154" height="1.474" rx=".737" transform="rotate(45 1.042 0)"/><rect width="21.154" height="1.474" rx=".737" transform="scale(-1 1) rotate(45 -7.479 -18.056)"/></symbol><symbol viewBox="0 0 25 24" id="edit" xmlns="http://www.w3.org/2000/svg"><g clip-path="url(#dclip0_249_3401)"><path fill-rule="evenodd" clip-rule="evenodd" d="M10.428 20.941l-6.531-6.27-2.902 8.835 9.433-2.565zm-5.24-7.613l8.384-8.736 6.532 6.27-8.385 8.735-6.532-6.27zM17.047.97l-2.185 2.278 6.531 6.27L23.58 7.24a1.5 1.5 0 00-.043-2.121L19.17.927a1.5 1.5 0 00-2.121.043z"/></g><defs><clipPath id="dclip0_249_3401"><path transform="translate(.5)" d="M0 0h24v24H0z"/></clipPath></defs></symbol><symbol viewBox="0 0 9 17" id="facebook" xmlns="http://www.w3.org/2000/svg"><path d="M5.913 17V9.336h2.581l.39-2.985H5.913V4.445c0-.866.24-1.444 1.492-1.444H9V.32A21.492 21.492 0 006.674.2C4.376.2 2.8 1.593 2.8 4.15v2.2H.2v2.985h2.6V17h3.113z"/></symbol><symbol viewBox="0 0 11 16" id="ok" xmlns="http://www.w3.org/2000/svg"><path d="M5.233 0a3.6 3.6 0 00-3.597 3.597 3.6 3.6 0 003.597 3.598 3.582 3.582 0 003.598-3.598A3.6 3.6 0 005.233 0zm0 4.797a1.194 1.194 0 01-1.199-1.2c0-.666.533-1.199 1.2-1.199.665 0 1.198.533 1.198 1.2 0 .666-.533 1.199-1.199 1.199zM9.656 9.62a8.849 8.849 0 01-2.878 1.012l2.798 3.438c.32.4.4.96.107 1.386-.453.692-1.412.719-1.892.106l-2.585-3.171-2.558 3.171a1.162 1.162 0 01-1.839-.053c-.293-.4-.266-1.066.053-1.466l2.772-3.464c-.986-.187-1.972-.506-2.851-1.013-.56-.32-.747-1.012-.427-1.599.32-.56 1.04-.746 1.599-.426 2.025 1.146 4.557 1.146 6.609.027a1.143 1.143 0 011.572.453c.293.586.08 1.279-.48 1.599z"/></symbol><symbol viewBox="0 0 25 24" id="question" xmlns="http://www.w3.org/2000/svg"><path d="M12.5 0C5.873 0 .5 5.373.5 12s5.373 12 12 12 12-5.373 12-12-5.373-12-12-12zm0 18.25a1.25 1.25 0 110-2.5 1.25 1.25 0 010 2.5zm1.961-5.928c-.904.975-.947 1.514-.935 2.178h-2.005c-.007-1.475.02-2.125 1.431-3.468.573-.544 1.025-.975.962-1.821-.058-.805-.73-1.226-1.365-1.226-.709 0-1.538.527-1.538 2.013h-2.01c0-2.4 1.409-3.95 3.59-3.95 1.036 0 1.942.339 2.55.955.57.578.865 1.372.854 2.298-.016 1.383-.857 2.291-1.534 3.021z"/></symbol><symbol viewBox="0 0 18 16" id="twitter" xmlns="http://www.w3.org/2000/svg"><path fill-rule="evenodd" clip-rule="evenodd" d="M17.727 2.506a7.296 7.296 0 01-2.09.571 3.636 3.636 0 001.598-2.013c-.703.418-1.48.72-2.309.884A3.638 3.638 0 008.73 5.264a10.318 10.318 0 01-7.495-3.8A3.625 3.625 0 00.743 3.29c0 1.262.643 2.375 1.619 3.026a3.628 3.628 0 01-1.648-.455v.045a3.638 3.638 0 002.917 3.565 3.684 3.684 0 01-1.642.06 3.641 3.641 0 003.395 2.526 7.294 7.294 0 01-4.517 1.558 7.82 7.82 0 01-.867-.05A10.292 10.292 0 005.575 15.2c6.688 0 10.346-5.54 10.346-10.346 0-.158-.003-.314-.01-.47A7.355 7.355 0 0017.723 2.5l.003.006z"/></symbol><symbol viewBox="0 0 16 16" id="user" xmlns="http://www.w3.org/2000/svg"><path d="M4 3.79c0 2.089 1.795 3.789 4 3.789s4-1.7 4-3.79C12 1.7 10.205 0 8 0S4 1.7 4 3.79zM15.111 16H16v-.842c0-3.25-2.792-5.895-6.222-5.895H6.222C2.792 9.263 0 11.908 0 15.158V16h15.111z"/></symbol><symbol viewBox="0 0 19 12" id="vk" xmlns="http://www.w3.org/2000/svg"><path d="M9.94 11.577C3.823 11.577.357 7.393.2.4h3.06c.093 5.12 2.372 7.305 4.152 7.742V.4h2.872v4.433c1.78-.218 3.653-2.216 4.277-4.433h2.872c-.468 2.716-2.497 4.745-3.933 5.557 1.436.656 3.715 2.435 4.589 5.62h-3.153c-.687-2.123-2.373-3.778-4.62-3.997v3.997H9.94z"/></symbol></svg>